<svg width="69" height="69" viewBox="0 0 69 69" fill="none" xmlns="http://www.w3.org/2000/svg">
<rect width="69" height="69" rx="20" fill="#989898"/>
<path fill-rule="evenodd" clip-rule="evenodd" d="M29.4729 13.8568C28 15.1735 28 17.5824 28 22.3979V45.6C28 50.4155 28 52.8244 29.4729 54.1411C30.9458 55.4579 33.1979 55.0631 37.7021 54.2713L42.5563 53.4187C47.5438 52.5408 50.0375 52.1019 51.5187 50.258C53 48.412 53 45.7449 53 40.4085V27.5894C53 22.2551 53 19.588 51.5208 17.742C50.0375 15.8981 47.5417 15.4592 42.5542 14.5834L37.7042 13.7287C33.2 12.9369 30.9479 12.5421 29.475 13.8589M34.25 30.1536C35.1125 30.1536 35.8125 30.8908 35.8125 31.8001V36.1978C35.8125 37.1071 35.1125 37.8443 34.25 37.8443C33.3875 37.8443 32.6875 37.1071 32.6875 36.1978V31.8001C32.6875 30.8908 33.3875 30.1536 34.25 30.1536Z" fill="white"/>
<path d="M25 19C20.9265 19.006 18.8027 19.096 17.4489 20.464C16 21.928 16 24.284 16 29V39C16 43.714 16 46.07 17.4489 47.536C18.8027 48.902 20.9265 48.994 25 49C24.907 47.752 24.907 46.312 24.907 44.754V23.246C24.907 21.686 24.907 20.246 25 19Z" fill="white"/>
</svg>
