<svg width="69" height="69" viewBox="0 0 69 69" fill="none" xmlns="http://www.w3.org/2000/svg">
<rect width="69" height="69" rx="20" fill="#A9DBE5"/>
<path fill-rule="evenodd" clip-rule="evenodd" d="M36.606 20.666C36.606 16.986 39.606 14 43.302 14C44.1795 13.9979 45.0488 14.1687 45.8603 14.5025C46.6718 14.8364 47.4096 15.3268 48.0316 15.9458C48.6535 16.5648 49.1475 17.3002 49.4852 18.1101C49.823 18.92 49.9979 19.7885 50 20.666C50 24.348 47 27.334 43.302 27.334C42.4152 27.3351 41.537 27.1599 40.7184 26.8186C39.8999 26.4774 39.1574 25.9768 38.534 25.346L29.264 31.658C29.5222 32.944 29.3956 34.2776 28.9 35.492L39.064 42.172C40.2611 41.1957 41.7592 40.6636 43.304 40.666C44.1815 40.6642 45.0508 40.8352 45.8622 41.1693C46.6736 41.5034 47.4112 41.994 48.033 42.6132C48.6548 43.2324 49.1485 43.968 49.486 44.778C49.8235 45.588 49.9982 46.4565 50 47.334C50 51.014 47 54 43.302 54C41.5302 54.0037 39.8294 53.3036 38.5737 52.0535C37.318 50.8035 36.6102 49.1058 36.606 47.334C36.6044 46.3993 36.8015 45.4749 37.184 44.622L27.1 38C25.8788 39.0618 24.3142 39.6452 22.696 39.642C21.8184 39.6441 20.9491 39.4733 20.1375 39.1393C19.326 38.8053 18.5883 38.3146 17.9664 37.6954C17.3446 37.0762 16.8509 36.3405 16.5135 35.5304C16.176 34.7202 16.0016 33.8516 16 32.974C16.0018 32.0966 16.1765 31.2282 16.514 30.4183C16.8516 29.6084 17.3453 28.873 17.9671 28.2539C18.5889 27.6349 19.3266 27.1445 20.138 26.8106C20.9494 26.4767 21.8186 26.3059 22.696 26.308C24.824 26.308 26.716 27.294 27.942 28.83L36.928 22.712C36.7142 22.0511 36.6056 21.3607 36.606 20.666Z" fill="white"/>
</svg>
